<?xml version="1.0" encoding="UTF-8"?>
<!DOCTYPE svg PUBLIC "-//W3C//DTD SVG 1.1//EN" "http://www.w3.org/Graphics/SVG/1.1/DTD/svg11.dtd">
<svg xmlns="http://www.w3.org/2000/svg" version="1.1" width="1921px" height="1080px" style="shape-rendering:geometricPrecision; text-rendering:geometricPrecision; image-rendering:optimizeQuality; fill-rule:evenodd; clip-rule:evenodd" xmlns:xlink="http://www.w3.org/1999/xlink">
<g><path style="opacity:0.981" fill="#fe452a" d="M 1242.5,264.5 C 1259.08,263.873 1271.91,270.54 1281,284.5C 1291.94,305.375 1300.94,327.042 1308,349.5C 1317.79,371.741 1328.12,393.741 1339,415.5C 1347.3,423.432 1355.64,423.432 1364,415.5C 1386.5,382.678 1399.5,346.345 1403,306.5C 1405.83,291.668 1414.66,285.501 1429.5,288C 1447.79,292.971 1461.29,303.805 1470,320.5C 1484.14,360.906 1497.47,401.573 1510,442.5C 1515.22,458.282 1522.56,472.949 1532,486.5C 1538.38,493.88 1544.38,501.547 1550,509.5C 1553.39,522.419 1548.55,529.753 1535.5,531.5C 1531.76,530.985 1528.09,530.152 1524.5,529C 1503.2,516.029 1488.04,497.862 1479,474.5C 1470.73,449.682 1462.06,425.016 1453,400.5C 1445.22,393.475 1436.72,392.642 1427.5,398C 1423.15,401.867 1419.65,406.367 1417,411.5C 1410.53,435.705 1404.53,460.038 1399,484.5C 1398.06,487.993 1396.72,491.326 1395,494.5C 1393.2,496.317 1391.03,497.484 1388.5,498C 1369.54,498.689 1354.38,491.522 1343,476.5C 1330.98,457.311 1317.15,439.477 1301.5,423C 1286.62,415.189 1276.79,419.356 1272,435.5C 1268.53,460.778 1265.53,486.112 1263,511.5C 1259.57,537.965 1246.74,543.965 1224.5,529.5C 1218.48,523.799 1215.48,516.799 1215.5,508.5C 1216.47,500.415 1217.97,492.415 1220,484.5C 1223.55,456.527 1226.88,428.527 1230,400.5C 1230.67,362.478 1230.33,324.478 1229,286.5C 1229.24,276.331 1233.74,268.997 1242.5,264.5 Z"/></g>
<g><path style="opacity:0.978" fill="#fe452a" d="M 716.5,322.5 C 722.456,321.875 727.789,323.375 732.5,327C 737.342,328.948 742.342,330.281 747.5,331C 760.667,330.876 773.834,330.376 787,329.5C 843.098,330.225 877.764,357.892 891,412.5C 900.238,483.176 875.071,537.676 815.5,576C 778.962,594.764 740.629,599.431 700.5,590C 687.82,587.339 676.486,582.005 666.5,574C 654.403,561.572 644.236,547.738 636,532.5C 630.734,516.45 628.234,499.95 628.5,483C 628.615,431.637 645.115,386.47 678,347.5C 688.402,335.228 701.235,326.895 716.5,322.5 Z M 768.5,363.5 C 802.431,361.2 826.598,375.2 841,405.5C 852.191,447.391 844.191,485.058 817,518.5C 794.835,540.165 768.335,553.165 737.5,557.5C 717.798,555.315 700.132,548.148 684.5,536C 678.24,527.226 674.74,517.392 674,506.5C 671.373,468.005 679.04,431.672 697,397.5C 707.027,384.05 720.194,374.883 736.5,370C 747.111,366.848 757.778,364.681 768.5,363.5 Z"/></g>
<g><path style="opacity:0.981" fill="#fe452a" d="M 1133.5,322.5 C 1145.49,323.248 1154.99,328.582 1162,338.5C 1164.22,342.271 1165.89,346.271 1167,350.5C 1171.61,376.992 1169.61,402.992 1161,428.5C 1142.69,485.985 1109.52,532.819 1061.5,569C 1038.57,581.21 1014.24,585.543 988.5,582C 967.348,575.497 952.514,561.997 944,541.5C 935.527,513.1 932.527,484.1 935,454.5C 937.307,428.634 942.307,403.3 950,378.5C 952.822,369.352 957.322,361.186 963.5,354C 973.321,349.681 983.321,349.348 993.5,353C 1005.73,359.325 1009.56,369.158 1005,382.5C 994.589,415.973 987.756,450.14 984.5,485C 984.554,500.724 987.388,515.891 993,530.5C 997.968,536.115 1004.14,537.948 1011.5,536C 1025.46,532.188 1037.8,525.521 1048.5,516C 1096.65,464.158 1121.49,402.658 1123,331.5C 1125.49,327.168 1128.99,324.168 1133.5,322.5 Z"/></g>
<g><path style="opacity:0.983" fill="#fe452a" d="M 548.5,330.5 C 562.126,329.985 573.626,334.652 583,344.5C 584.275,346.717 585.275,349.051 586,351.5C 585.485,389.997 582.652,428.33 577.5,466.5C 578.17,471.196 579.004,475.863 580,480.5C 582.436,486.141 584.269,491.975 585.5,498C 584.936,504.96 582.103,510.794 577,515.5C 572.708,521.09 570.374,527.423 570,534.5C 567.871,546.145 565.871,557.812 564,569.5C 563.447,581.04 563.947,592.54 565.5,604C 564.293,620.225 556.293,631.892 541.5,639C 537.5,639.667 533.5,639.667 529.5,639C 527.376,637.878 525.543,636.378 524,634.5C 520.249,626.914 517.916,618.914 517,610.5C 516.782,587.485 516.115,564.485 515,541.5C 513.915,538.75 511.915,537.083 509,536.5C 492.505,539.666 476.005,542.832 459.5,546C 452.38,546.467 447.547,549.967 445,556.5C 442.949,570.777 441.282,585.11 440,599.5C 435.553,620.918 422.553,633.918 401,638.5C 395.879,638.043 392.545,635.377 391,630.5C 390.667,611.5 390.333,592.5 390,573.5C 390.361,563.592 387.361,554.925 381,547.5C 364.671,537.643 364.505,527.809 380.5,518C 386.486,512.862 389.986,506.362 391,498.5C 391.315,472.447 390.315,446.447 388,420.5C 386.742,414.059 385.075,407.725 383,401.5C 380.885,383.109 389.052,372.776 407.5,370.5C 418.839,370.543 428.006,374.876 435,383.5C 437.803,389.91 439.803,396.577 441,403.5C 443.695,432.447 445.695,461.447 447,490.5C 446.831,495.715 447.997,500.548 450.5,505C 459.553,508.893 468.886,509.56 478.5,507C 490.301,504.133 501.968,500.8 513.5,497C 517.49,495.01 519.99,491.843 521,487.5C 522.847,466.728 525.513,446.061 529,425.5C 529.694,406.16 529.528,386.826 528.5,367.5C 527.641,354.234 531.974,343.067 541.5,334C 543.925,332.787 546.259,331.621 548.5,330.5 Z"/></g>
<g><path style="opacity:0.981" fill="#fe452a" d="M 1145.5,609.5 C 1157.15,609.072 1166.65,613.406 1174,622.5C 1177.94,631.372 1177.94,640.372 1174,649.5C 1172.11,654.945 1169.45,659.945 1166,664.5C 1131.91,706.285 1090.74,739.118 1042.5,763C 958.067,804.955 869.067,820.621 775.5,810C 702.168,794.608 647.668,754.108 612,688.5C 608.172,679.182 605.672,669.516 604.5,659.5C 604.519,653.277 607.185,648.777 612.5,646C 624.722,642.725 635.222,645.559 644,654.5C 657.989,674.497 673.489,693.331 690.5,711C 721.579,738.361 757.912,754.028 799.5,758C 866.256,761.374 930.589,750.374 992.5,725C 1012.07,716.882 1031.4,708.215 1050.5,699C 1064.76,690.695 1077.76,680.695 1089.5,669C 1098.33,660.167 1107.17,651.333 1116,642.5C 1122.25,634.343 1128.25,626.01 1134,617.5C 1137.48,614.161 1141.32,611.494 1145.5,609.5 Z"/></g>
</svg>
